<?xml version="1.0" standalone="no"?>
<!DOCTYPE svg PUBLIC "-//W3C//DTD SVG 20010904//EN"
 "http://www.w3.org/TR/2001/REC-SVG-20010904/DTD/svg10.dtd">
<svg version="1.0" xmlns="http://www.w3.org/2000/svg"
 width="1291.000000pt" height="451.000000pt" viewBox="0 0 1291.000000 451.000000"
 preserveAspectRatio="xMidYMid meet">

<g transform="translate(0.000000,451.000000) scale(0.100000,-0.100000)"
fill="#000000" stroke="none">
<path d="M6108 3833 c6 -2 18 -2 25 0 6 3 1 5 -13 5 -14 0 -19 -2 -12 -5z"/>
<path d="M6150 3830 c0 -5 6 -10 13 -10 13 0 77 -63 77 -75 0 -12 83 -136 87
-131 6 5 -33 73 -54 94 -7 7 -13 19 -13 26 0 7 -19 34 -43 60 -41 44 -67 58
-67 36z"/>
<path d="M6048 3816 c-10 -7 -18 -16 -18 -20 0 -4 -9 -19 -20 -34 -10 -15 -26
-61 -35 -102 -17 -86 -18 -100 -6 -100 4 0 11 31 14 68 8 83 47 165 89 188 14
8 17 13 8 13 -8 0 -23 -6 -32 -13z"/>
<path d="M6336 3591 c-3 -5 1 -15 10 -22 8 -7 27 -32 41 -56 14 -24 28 -42 30
-39 5 4 -66 126 -73 126 -1 0 -5 -4 -8 -9z"/>
<path d="M6103 3572 c1 -14 5 -18 11 -12 7 7 6 14 -1 21 -9 9 -12 7 -10 -9z"/>
<path d="M6166 3568 c18 -35 70 -108 76 -108 3 0 -10 27 -29 60 -20 33 -40 60
-45 60 -5 0 -6 -6 -2 -12z"/>
<path d="M6918 3574 c-5 -4 -20 -8 -35 -10 -26 -2 -63 -12 -138 -34 -30 -9
-30 -9 5 -5 46 5 155 31 170 40 15 9 62 -3 55 -14 -3 -5 3 -7 13 -4 10 2 25
-3 32 -12 20 -24 -1 -94 -40 -136 -16 -19 -30 -37 -30 -42 0 -4 -6 -5 -12 -1
-7 4 -10 4 -6 0 4 -5 -3 -19 -15 -31 -12 -13 -40 -43 -62 -67 -22 -23 -44 -41
-48 -40 -5 1 -6 -2 -3 -7 4 -5 -13 -29 -36 -54 -65 -67 -98 -108 -98 -121 0
-19 18 -41 27 -32 4 5 2 11 -4 13 -21 7 -15 26 20 63 63 67 203 226 265 299
55 66 62 80 62 118 0 34 -5 46 -24 58 -28 19 -88 30 -98 19z"/>
<path d="M6096 3528 c-3 -7 -7 -31 -10 -53 -3 -22 -8 -53 -11 -70 -3 -18 1
-13 10 14 15 46 27 121 19 121 -2 0 -6 -6 -8 -12z"/>
<path d="M5942 3477 c-15 -63 -16 -100 -3 -77 9 16 26 130 19 130 -2 0 -9 -24
-16 -53z"/>
<path d="M6660 3510 c-8 -5 -26 -10 -39 -10 -13 0 -22 -3 -18 -6 9 -9 107 6
107 17 0 12 -31 11 -50 -1z"/>
<path d="M6540 3481 c-8 -5 -36 -12 -62 -15 -47 -7 -67 -26 -28 -26 11 0 20 4
20 9 0 5 27 12 60 16 33 4 60 11 60 16 0 11 -30 11 -50 0z"/>
<path d="M6255 3423 c42 -66 42 -65 49 -48 3 9 2 14 -2 11 -5 -3 -16 11 -27
30 -10 19 -22 34 -28 34 -5 0 -1 -12 8 -27z"/>
<path d="M6698 3385 c-26 -7 -49 -10 -52 -7 -4 3 -6 0 -6 -8 0 -15 39 -9 91
14 42 18 29 18 -33 1z"/>
<path d="M6063 3325 c0 -27 2 -38 4 -22 2 15 2 37 0 50 -2 12 -4 0 -4 -28z"/>
<path d="M6745 3334 c-26 -31 -53 -76 -29 -49 5 6 25 27 43 48 19 20 31 37 25
37 -5 0 -23 -16 -39 -36z"/>
<path d="M5918 3335 c-3 -14 -1 -25 3 -25 5 0 9 11 9 25 0 14 -2 25 -4 25 -2
0 -6 -11 -8 -25z"/>
<path d="M6308 3354 c-4 -5 0 -18 8 -29 15 -20 17 -12 5 19 -4 11 -10 15 -13
10z"/>
<path d="M6526 3345 c-32 -7 -63 -18 -69 -24 -14 -14 2 -15 36 -2 13 5 39 12
59 15 19 3 45 10 59 15 l24 10 -25 -1 c-14 0 -51 -6 -84 -13z"/>
<path d="M6340 3294 c0 -15 6 -16 35 -5 17 7 17 8 -8 13 -19 4 -27 1 -27 -8z"/>
<path d="M6408 3303 c6 -2 18 -2 25 0 6 3 1 5 -13 5 -14 0 -19 -2 -12 -5z"/>
<path d="M5843 3289 c-18 -5 -33 -12 -33 -15 0 -9 73 6 85 17 11 11 -9 11 -52
-2z"/>
<path d="M6040 3261 c0 -12 5 -21 10 -21 6 0 10 6 10 14 0 8 -4 18 -10 21 -5
3 -10 -3 -10 -14z"/>
<path d="M6639 3218 c-118 -132 -153 -180 -142 -197 5 -9 45 -80 87 -158 73
-134 96 -169 96 -144 0 6 -4 11 -9 11 -5 0 -12 12 -15 26 -4 15 -14 33 -21 41
-8 8 -15 23 -15 34 0 10 -4 19 -9 19 -4 0 -19 21 -33 48 -13 26 -36 68 -51 94
l-26 46 24 26 c13 14 28 32 32 40 14 25 127 141 134 139 4 -2 7 6 6 17 -1 11
-2 20 -2 20 0 0 -26 -28 -56 -62z"/>
<path d="M5755 3261 c-3 -6 -26 -13 -50 -17 -25 -3 -48 -10 -51 -15 -7 -12 19
-11 48 0 49 20 63 24 75 22 6 -1 14 3 18 9 3 5 -3 10 -14 10 -11 0 -22 -4 -26
-9z"/>
<path d="M5535 3197 c-38 -12 -71 -25 -73 -29 -2 -5 -10 -8 -17 -8 -7 0 -27
-13 -44 -29 -26 -24 -31 -36 -31 -75 0 -42 5 -51 45 -91 43 -44 65 -55 65 -35
0 6 -6 10 -14 10 -8 0 -30 18 -49 40 -45 52 -48 101 -9 137 35 33 87 59 137
68 22 4 45 10 50 15 6 4 19 10 30 13 l20 5 -20 0 c-11 0 -51 -10 -90 -21z"/>
<path d="M6026 3204 c-17 -12 -17 -14 -4 -14 9 0 20 5 23 11 11 17 2 18 -19 3z"/>
<path d="M5959 3185 c-3 -2 -14 -6 -25 -8 -10 -2 -26 -6 -34 -10 -8 -3 -24 -8
-35 -12 -11 -4 -15 -9 -10 -11 6 -2 42 7 80 21 39 13 61 24 49 24 -11 1 -23
-1 -25 -4z"/>
<path d="M5773 3133 c-18 -2 -33 -8 -33 -14 0 -5 -6 -9 -12 -9 -23 0 -90 -21
-85 -27 5 -4 55 8 97 24 8 4 18 6 21 5 3 0 23 5 45 13 38 14 31 16 -33 8z"/>
<path d="M5655 3030 c3 -5 14 -10 23 -10 15 0 15 2 2 10 -20 13 -33 13 -25 0z"/>
<path d="M5700 3016 c0 -2 33 -16 73 -31 116 -44 125 -48 120 -62 -3 -7 -11
-13 -19 -13 -8 0 -14 -3 -14 -8 0 -4 -21 -19 -47 -32 -27 -14 -49 -28 -51 -32
-6 -13 -56 -8 -76 7 -11 8 -28 15 -38 15 -10 0 -18 5 -18 10 0 6 -10 10 -22
10 -19 0 -20 2 -8 10 17 11 4 12 -24 1 -15 -6 -1 -14 61 -39 44 -18 88 -32 98
-32 16 0 95 44 174 97 28 19 30 23 13 23 -11 0 -23 4 -27 9 -3 5 -20 13 -37
17 -18 3 -39 10 -48 14 -64 31 -110 46 -110 36z"/>
<path d="M6701 2970 c15 -30 39 -55 39 -41 0 5 -12 23 -26 38 -24 27 -25 27
-13 3z"/>
<path d="M5490 2922 c0 -5 8 -12 18 -16 9 -3 23 -9 30 -12 6 -3 12 -1 12 4 0
5 -8 12 -17 16 -10 3 -24 9 -30 12 -7 3 -13 1 -13 -4z"/>
<path d="M2925 2896 c-153 -44 -268 -177 -268 -311 -1 -88 34 -144 183 -300
69 -71 132 -145 139 -162 33 -80 -45 -163 -154 -163 -55 0 -101 32 -132 89
-13 25 -25 46 -27 48 -7 8 -196 -99 -196 -110 1 -24 38 -95 70 -131 99 -112
312 -127 473 -33 111 65 189 193 191 312 1 93 -31 146 -189 309 -75 76 -138
150 -141 163 -10 39 12 72 63 95 63 28 107 14 162 -49 l41 -46 88 60 c48 34
87 66 87 73 0 37 -111 138 -172 157 -48 15 -166 15 -218 -1z"/>
<path d="M6751 2900 c0 -8 4 -24 9 -35 5 -13 9 -14 9 -5 0 8 -4 24 -9 35 -5
13 -9 14 -9 5z"/>
<path d="M970 2864 c0 -9 5 -12 11 -8 14 8 344 9 419 0 l55 -6 -45 15 c-34 11
-95 15 -242 15 -173 0 -198 -2 -198 -16z"/>
<path d="M5891 2810 c-51 -32 -98 -63 -103 -68 -6 -6 -14 -41 -18 -79 -10 -80
-66 -491 -115 -835 l-5 -38 104 0 104 0 11 68 c6 37 17 119 26 182 21 159 25
180 33 180 4 0 23 -24 42 -53 119 -178 255 -369 265 -373 6 -3 64 -3 128 -2
l118 3 -105 140 c-58 77 -146 195 -197 263 l-93 123 122 122 121 122 -16 93
c-9 50 -21 92 -27 91 -6 -1 -82 -77 -170 -170 -87 -93 -162 -169 -168 -169 -5
0 -7 4 -4 8 5 8 26 157 47 322 5 41 11 87 14 103 3 17 0 27 -8 26 -6 0 -54
-27 -106 -59z"/>
<path d="M1474 2835 c11 -8 26 -15 33 -15 7 0 13 -4 13 -10 0 -5 7 -10 15 -10
17 0 75 -75 75 -97 0 -8 4 -11 10 -8 12 8 -15 63 -44 89 -32 28 -94 66 -108
66 -8 -1 -5 -7 6 -15z"/>
<path d="M6777 2844 c-3 -3 3 -15 14 -27 10 -11 19 -29 19 -38 0 -10 5 -21 11
-24 20 -13 18 1 -10 48 -15 26 -30 44 -34 41z"/>
<path d="M977 2833 c-4 -3 -7 -244 -7 -535 l0 -528 27 0 c14 0 23 3 19 8 -4 4
-13 7 -19 7 -9 0 -12 132 -12 528 0 290 0 527 -1 527 0 0 -4 -3 -7 -7z"/>
<path d="M6371 2733 c0 -31 2 -34 9 -18 12 28 12 55 0 55 -5 0 -10 -17 -9 -37z"/>
<path d="M6400 2749 c0 -5 9 -9 20 -9 11 0 20 2 20 4 0 2 -9 6 -20 9 -11 3
-20 1 -20 -4z"/>
<path d="M6460 2731 c8 -5 35 -11 60 -14 25 -3 36 -4 25 -1 -11 3 -24 10 -29
15 -6 5 -24 9 -40 9 -23 -1 -27 -3 -16 -9z"/>
<path d="M6835 2730 c3 -5 8 -10 11 -10 2 0 4 5 4 10 0 6 -5 10 -11 10 -5 0
-7 -4 -4 -10z"/>
<path d="M1208 2713 c23 -2 61 -2 85 0 23 2 4 4 -43 4 -47 0 -66 -2 -42 -4z"/>
<path d="M1345 2700 c3 -5 10 -10 16 -10 5 0 9 5 9 10 0 6 -7 10 -16 10 -8 0
-12 -4 -9 -10z"/>
<path d="M6385 2691 c-3 -10 -1 -29 4 -42 9 -21 10 -19 10 19 1 45 -4 54 -14
23z"/>
<path d="M6570 2701 c0 -5 10 -9 23 -8 12 0 36 -3 52 -7 29 -7 29 -7 -4 9 -37
17 -71 20 -71 6z"/>
<path d="M6853 2699 c9 -5 17 -21 17 -34 0 -14 5 -25 10 -25 12 0 12 0 -1 39
-6 18 -18 31 -27 31 -15 -1 -15 -2 1 -11z"/>
<path d="M1628 2684 c-8 -7 2 -44 12 -44 4 0 5 11 2 25 -5 27 -6 28 -14 19z"/>
<path d="M1152 2660 c0 -14 2 -19 5 -12 2 6 2 18 0 25 -3 6 -5 1 -5 -13z"/>
<path d="M1410 2671 c0 -5 4 -12 9 -16 17 -10 41 -67 41 -97 0 -15 4 -28 8
-28 13 0 -3 86 -19 107 -26 33 -39 45 -39 34z"/>
<path d="M1642 2552 c0 -50 4 -78 9 -70 11 16 10 94 -1 128 -6 17 -8 -2 -8
-58z"/>
<path d="M3690 2611 c-162 -38 -294 -140 -363 -281 -40 -82 -50 -138 -117
-667 -5 -40 -12 -84 -16 -98 l-6 -25 95 0 95 0 6 33 c4 17 13 83 21 146 8 62
16 115 18 117 2 2 31 -10 64 -26 46 -23 80 -32 139 -36 160 -12 284 35 401
151 84 84 125 160 143 270 21 120 -23 242 -116 324 -74 65 -141 92 -242 96
-48 2 -103 0 -122 -4z m201 -216 c127 -90 115 -276 -25 -381 -46 -35 -124 -64
-171 -64 -97 0 -194 72 -215 160 -24 102 21 205 120 272 66 45 74 47 172 45
67 -2 81 -6 119 -32z"/>
<path d="M4655 2611 c-246 -68 -405 -253 -405 -471 0 -152 79 -273 219 -339
50 -23 68 -26 166 -26 127 0 202 21 210 58 8 37 24 192 20 195 -2 2 -19 -7
-37 -21 -40 -30 -116 -57 -162 -57 -120 0 -226 101 -226 217 0 85 69 189 156
233 40 21 62 25 134 25 76 0 91 -3 126 -26 24 -16 49 -45 64 -75 31 -62 31
-157 1 -362 -12 -78 -21 -149 -21 -158 0 -12 15 -14 92 -12 l93 3 28 195 c46
320 29 422 -84 524 -79 71 -144 97 -253 102 -50 2 -104 0 -121 -5z"/>
<path d="M6394 2604 c3 -9 6 -18 6 -20 0 -9 39 -4 45 6 3 6 -3 10 -14 10 -12
0 -21 5 -21 10 0 6 -5 10 -11 10 -6 0 -8 -7 -5 -16z"/>
<path d="M1154 2485 c0 -71 1 -99 3 -62 2 37 2 96 0 130 -2 34 -3 4 -3 -68z"/>
<path d="M1720 2596 c0 -17 39 -66 40 -50 0 6 -6 17 -14 24 -8 6 -12 18 -9 26
3 8 0 14 -6 14 -6 0 -11 -6 -11 -14z"/>
<path d="M1815 2603 c92 -4 115 -10 115 -30 0 -9 3 -14 6 -10 3 3 3 15 -1 26
-6 19 -13 21 -98 19 -83 -2 -86 -2 -22 -5z"/>
<path d="M2300 2591 c0 -11 -4 -23 -10 -26 -5 -3 -10 -15 -10 -26 0 -31 17
-13 24 26 l7 35 89 0 c76 0 89 -2 92 -17 3 -15 5 -14 10 5 6 22 5 22 -98 22
-96 0 -104 -1 -104 -19z"/>
<path d="M5436 2584 c-62 -20 -149 -103 -165 -160 -11 -37 -28 -149 -51 -329
-6 -44 -17 -126 -25 -181 -8 -56 -15 -107 -15 -113 0 -16 189 -15 194 2 2 6
11 71 20 142 30 228 56 404 63 422 12 33 37 42 109 43 l72 0 11 63 c6 35 11
78 11 95 l0 32 -87 -1 c-49 0 -110 -7 -137 -15z"/>
<path d="M6866 2565 c-4 -14 -13 -25 -21 -25 -8 0 -15 -4 -15 -10 0 -5 -11
-10 -24 -10 -14 0 -28 -4 -31 -10 -12 -20 39 -9 70 15 30 22 53 65 35 65 -4 0
-11 -11 -14 -25z"/>
<path d="M6500 2565 c53 -17 57 -18 45 -6 -6 5 -28 12 -50 15 l-40 6 45 -15z"/>
<path d="M2477 2550 c-28 -81 -30 -110 -2 -43 9 20 14 41 11 47 -2 6 -6 4 -9
-4z"/>
<path d="M1940 2533 c0 -29 10 -53 22 -53 7 0 6 5 -1 13 -6 8 -8 16 -5 20 3 3
1 14 -5 24 -10 17 -10 16 -11 -4z"/>
<path d="M6563 2544 c10 -10 77 -22 77 -14 0 4 -14 10 -31 14 -39 8 -54 8 -46
0z"/>
<path d="M1750 2516 c0 -9 5 -16 10 -16 6 0 10 4 10 9 0 6 -4 13 -10 16 -5 3
-10 -1 -10 -9z"/>
<path d="M6657 2519 c14 -14 93 -30 93 -19 0 4 -20 13 -44 19 -56 14 -63 14
-49 0z"/>
<path d="M1460 2487 c0 -14 -4 -29 -10 -32 -13 -8 -13 -25 0 -25 11 0 25 68
16 77 -3 4 -6 -5 -6 -20z"/>
<path d="M2271 2494 c0 -11 3 -14 6 -6 3 7 2 16 -1 19 -3 4 -6 -2 -5 -13z"/>
<path d="M1771 2479 c0 -9 15 -61 35 -115 20 -55 38 -106 41 -114 3 -8 7 -10
9 -5 2 6 -7 39 -21 75 -14 35 -25 71 -25 80 0 8 -6 24 -14 35 -7 11 -16 29
-19 40 -3 14 -5 15 -6 4z"/>
<path d="M1966 2445 c7 -33 24 -58 24 -34 -1 7 -7 25 -15 39 l-15 25 6 -30z"/>
<path d="M2250 2444 c0 -8 5 -12 10 -9 6 3 10 10 10 16 0 5 -4 9 -10 9 -5 0
-10 -7 -10 -16z"/>
<path d="M2433 2423 c-6 -21 -10 -40 -8 -42 7 -6 26 51 23 66 -2 8 -8 -3 -15
-24z"/>
<path d="M1392 2384 c-24 -19 -38 -34 -30 -34 14 0 84 58 77 64 -2 2 -23 -12
-47 -30z"/>
<path d="M1624 2385 c-5 -22 -15 -39 -22 -38 -6 2 -9 -4 -6 -11 8 -21 -62 -83
-131 -116 -33 -16 -52 -29 -43 -30 24 0 99 42 140 78 39 36 81 113 76 140 -2
9 -8 -1 -14 -23z"/>
<path d="M2237 2381 c-4 -17 -3 -21 5 -13 5 5 8 16 6 23 -3 8 -7 3 -11 -10z"/>
<path d="M1986 2375 c-8 -22 -8 -27 3 -21 5 3 12 -9 16 -27 4 -18 9 -25 12
-16 2 8 -3 30 -10 48 -11 26 -15 30 -21 16z"/>
<path d="M2412 2350 c0 -14 2 -19 5 -12 2 6 2 18 0 25 -3 6 -5 1 -5 -13z"/>
<path d="M1175 2340 c7 -12 112 -12 140 0 13 6 -7 9 -63 9 -53 1 -81 -3 -77
-9z"/>
<path d="M2220 2336 c0 -9 5 -16 10 -16 6 0 10 4 10 9 0 6 -4 13 -10 16 -5 3
-10 -1 -10 -9z"/>
<path d="M2391 2304 c0 -11 3 -14 6 -6 3 7 2 16 -1 19 -3 4 -6 -2 -5 -13z"/>
<path d="M2207 2290 c-3 -11 -1 -20 4 -20 5 0 9 9 9 20 0 11 -2 20 -4 20 -2 0
-6 -9 -9 -20z"/>
<path d="M2021 2275 c0 -25 27 -86 28 -64 1 9 -6 32 -14 50 -10 23 -14 28 -14
14z"/>
<path d="M2371 2238 c-10 -30 -9 -31 4 -14 8 11 15 26 15 33 0 22 -8 14 -19
-19z"/>
<path d="M2197 2253 c-4 -3 -7 -18 -6 -32 1 -26 1 -25 10 3 9 31 7 41 -4 29z"/>
<path d="M1860 2221 c0 -5 5 -13 10 -16 6 -3 10 -2 10 4 0 5 -4 13 -10 16 -5
3 -10 2 -10 -4z"/>
<path d="M1194 2181 c4 -6 30 -11 58 -11 64 0 55 13 -13 18 -35 2 -49 0 -45
-7z"/>
<path d="M1333 2183 c15 -2 37 -2 50 0 12 2 0 4 -28 4 -27 0 -38 -2 -22 -4z"/>
<path d="M1886 2165 c5 -38 36 -115 46 -115 7 0 7 4 1 13 -11 13 -27 67 -25
80 1 4 -2 7 -7 7 -5 0 -12 8 -14 18 -3 10 -3 9 -1 -3z"/>
<path d="M2051 2175 c0 -11 6 -38 14 -60 13 -40 13 -40 14 -9 1 18 -6 45 -14
60 -12 23 -15 25 -14 9z"/>
<path d="M2166 2153 c-4 -21 -9 -47 -12 -58 -4 -16 -3 -17 4 -5 11 17 26 100
19 100 -3 0 -8 -17 -11 -37z"/>
<path d="M2340 2171 c0 -6 5 -13 10 -16 6 -3 10 1 10 9 0 9 -4 16 -10 16 -5 0
-10 -4 -10 -9z"/>
<path d="M1147 2139 c4 -13 8 -18 11 -10 2 7 -1 18 -6 23 -8 8 -9 4 -5 -13z"/>
<path d="M2317 2087 c-20 -65 -22 -81 -3 -46 13 25 30 99 23 99 -2 0 -11 -24
-20 -53z"/>
<path d="M2083 2030 c0 -25 2 -35 4 -22 2 12 2 32 0 45 -2 12 -4 2 -4 -23z"/>
<path d="M2140 2051 c0 -25 6 -27 13 -6 4 8 2 17 -3 20 -6 4 -10 -3 -10 -14z"/>
<path d="M1153 1990 c0 -25 2 -35 4 -22 2 12 2 32 0 45 -2 12 -4 2 -4 -23z"/>
<path d="M1940 2008 c0 -10 6 -32 14 -50 8 -18 22 -53 31 -78 10 -25 21 -54
25 -65 5 -11 11 -27 14 -35 3 -8 3 3 0 25 -3 22 -10 44 -15 50 -5 5 -9 17 -9
27 0 10 -4 18 -9 18 -5 0 -12 17 -16 38 -7 43 -34 97 -35 70z"/>
<path d="M2282 1981 c-17 -47 -15 -62 3 -27 9 17 14 37 12 45 -1 9 -8 2 -15
-18z"/>
<path d="M2258 1915 c-3 -6 -9 -26 -12 -45 l-7 -35 16 34 c14 32 17 68 3 46z"/>
<path d="M2206 1762 c-47 -168 -126 -295 -204 -327 -19 -9 -32 -18 -29 -21 11
-12 96 46 130 89 18 23 43 66 56 94 37 90 80 223 72 227 -4 3 -15 -26 -25 -62z"/>
<path d="M1030 1778 c0 -5 29 -8 65 -8 36 0 65 4 65 8 0 4 -29 8 -65 7 -36 0
-65 -3 -65 -7z"/>
<path d="M2021 1724 c0 -11 3 -14 6 -6 3 7 2 16 -1 19 -3 4 -6 -2 -5 -13z"/>
<path d="M2000 1685 c0 -8 5 -15 10 -15 6 0 10 7 10 15 0 8 -4 15 -10 15 -5 0
-10 -7 -10 -15z"/>
<path d="M1969 1629 c-12 -17 -36 -40 -53 -50 -34 -21 -28 -26 7 -7 38 20 94
88 73 88 -3 0 -15 -14 -27 -31z"/>
<path d="M1767 1482 c3 -96 13 -107 13 -14 l0 72 44 0 c25 0 47 3 49 8 3 4
-20 7 -51 7 l-57 1 2 -74z"/>
</g>
</svg>
